<svg xmlns="http://www.w3.org/2000/svg" aria-hidden="true" style="position:absolute;width:0;height:0;overflow:hidden"><defs><symbol id="icon-arrow-down" viewBox="0 0 32 32"><path fill="#8091b2" d="M16 28 32 4H0z" style="fill:var(--color1, #8091b2)"/></symbol><symbol id="icon-arrow-left" viewBox="0 0 32 32"><path fill="#8091b2" d="M6.737 0h17.965a6.737 6.737 0 0 1 6.737 6.737v17.965a6.737 6.737 0 0 1-6.737 6.737H6.737A6.737 6.737 0 0 1 0 24.702V6.737A6.737 6.737 0 0 1 6.737 0" style="fill:var(--color1, #8091b2)"/><path fill="none" stroke="#191c2e" stroke-linecap="round" stroke-linejoin="round" stroke-width="1.123" d="m19.088 22.456-6.737-6.737 6.737-6.737" style="stroke:var(--color2, #191c2e)"/></symbol><symbol id="icon-arrow-right" viewBox="0 0 32 32"><path fill="#8091b2" d="M6.737 0h17.965a6.737 6.737 0 0 1 6.737 6.737v17.965a6.737 6.737 0 0 1-6.737 6.737H6.737A6.737 6.737 0 0 1 0 24.702V6.737A6.737 6.737 0 0 1 6.737 0" style="fill:var(--color1, #8091b2)"/><path fill="none" stroke="#191c2e" stroke-linecap="round" stroke-linejoin="round" stroke-width="1.123" d="m12.351 22.456 6.737-6.737-6.737-6.737" style="stroke:var(--color2, #191c2e)"/></symbol><symbol id="icon-close" viewBox="0 0 32 32"><path fill="none" stroke="#dbe2f0" stroke-linecap="round" stroke-linejoin="round" stroke-width="1.333" d="m7 7 9 9m0 0-9 9m9-9 9 9m-9-9 9-9" style="stroke:var(--color3, #dbe2f0)"/></symbol><symbol id="icon-email" viewBox="0 0 32 32"><path fill="#f08b40" d="m21.979 15.968 8.201-7.125v14.169zm-10.568 1.207 2.88 2.5a2.6 2.6 0 0 0 1.685.616h.04c.645 0 1.235-.233 1.692-.62l-.004.003 2.88-2.5 8.755 7.519H2.66zM2.648 7.153h26.707L16.527 18.294a.8.8 0 0 1-.507.176h-.036a.8.8 0 0 1-.508-.177l.001.001zM1.82 8.841l8.2 7.125-8.2 7.04zm28.8-3.254a2.46 2.46 0 0 0-1.095-.253H2.478a2.5 2.5 0 0 0-1.113.263l.015-.007A2.48 2.48 0 0 0 0 7.807v16.229a2.48 2.48 0 0 0 2.477 2.477h27.044a2.48 2.48 0 0 0 2.477-2.477V7.807a2.47 2.47 0 0 0-1.372-2.213l-.015-.007h.008z" style="fill:var(--color4, #f08b40)"/></symbol><symbol id="icon-menu" viewBox="0 0 32 32"><path fill="none" stroke="#dbe2f0" stroke-linecap="round" stroke-width="1.333" d="M6.667 8h18.667M6.667 24h18.667M6.667 16h18.667" style="stroke:var(--color3, #dbe2f0)"/></symbol><symbol id="icon-arrow-back" viewBox="0 0 24 24" fill="none">
  <path d="M16 19.5L8 12L16 4.5" stroke="#191C2E" stroke-linecap="round" stroke-linejoin="round" />
</symbol></defs></svg>